HIERARCHY
ROOT Hips
{
	OFFSET 0.000000 87.230942 0.000000
	CHANNELS 6 Xposition Yposition Zposition Xrotation Yrotation Zrotation
	JOINT Pelvis
	{
		OFFSET 0.000000 0.000000 0.000000
		CHANNELS 3 Xrotation Yrotation Zrotation
		JOINT LeftUpLeg
		{
			OFFSET 12.017000 -9.376404 -2.439400
			CHANNELS 3 Xrotation Yrotation Zrotation
			JOINT LeftLeg
			{
				OFFSET -0.007312 -32.846973 2.110600
				CHANNELS 3 Xrotation Yrotation Zrotation
				JOINT LeftFoot
				{
					OFFSET 0.007312 -32.065170 -0.570400
					CHANNELS 3 Xrotation Yrotation Zrotation
					JOINT LeftToeBase
					{
						OFFSET 0.728300 -11.045900 13.180700
						CHANNELS 3 Xrotation Yrotation Zrotation
						End Site
						{
							OFFSET 0.000000 17.212589 0.000000
						}
					}
				}
				JOINT LeftPantLeg
				{
					OFFSET 0.002788 -16.709013 -3.143600
					CHANNELS 3 Xrotation Yrotation Zrotation
					End Site
					{
						OFFSET -0.605125 24.528742 0.000000
					}
				}
			}
			JOINT Left_Butt
			{
				OFFSET -6.630234 1.326584 -3.183700
				CHANNELS 3 Xrotation Yrotation Zrotation
				End Site
				{
					OFFSET -0.498041 20.188049 0.000000
				}
			}
		}
		JOINT RightUpLeg
		{
			OFFSET -11.717000 -9.376404 -2.439400
			CHANNELS 3 Xrotation Yrotation Zrotation
			JOINT RightLeg
			{
				OFFSET -0.003241 -32.846912 2.110600
				CHANNELS 3 Xrotation Yrotation Zrotation
				JOINT RightFoot
				{
					OFFSET 0.003241 -32.065136 -0.570500
					CHANNELS 3 Xrotation Yrotation Zrotation
					JOINT RightToeBase
					{
						OFFSET -0.728300 -11.045901 13.180700
						CHANNELS 3 Xrotation Yrotation Zrotation
						End Site
						{
							OFFSET 0.000000 17.212593 0.000000
						}
					}
				}
				JOINT RightPantLeg
				{
					OFFSET 0.008142 -16.708982 -3.143700
					CHANNELS 3 Xrotation Yrotation Zrotation
					End Site
					{
						OFFSET 0.605088 24.528715 0.000000
					}
				}
			}
			JOINT Right_Butt
			{
				OFFSET 6.630732 1.326584 -3.183700
				CHANNELS 3 Xrotation Yrotation Zrotation
				End Site
				{
					OFFSET 0.498015 20.188240 0.000000
				}
			}
		}
	}
	JOINT Spine
	{
		OFFSET -0.062400 7.848404 3.918300
		CHANNELS 3 Xrotation Yrotation Zrotation
		JOINT Spine1
		{
			OFFSET -0.072800 11.422302 0.713400
			CHANNELS 3 Xrotation Yrotation Zrotation
			JOINT Spine2
			{
				OFFSET -0.083200 13.054001 -1.931600
				CHANNELS 3 Xrotation Yrotation Zrotation
				JOINT Neck
				{
					OFFSET -0.092200 14.121796 -5.138800
					CHANNELS 3 Xrotation Yrotation Zrotation
					JOINT Head
					{
						OFFSET 0.000200 10.447403 -0.842000
						CHANNELS 3 Xrotation Yrotation Zrotation
						JOINT Visor
						{
							OFFSET 0.457100 25.671204 16.550400
							CHANNELS 3 Xrotation Yrotation Zrotation
							End Site
							{
								OFFSET 0.000000 26.061493 0.000000
							}
						}
						JOINT HairMidA
						{
							OFFSET 0.459400 31.585403 8.437400
							CHANNELS 3 Xrotation Yrotation Zrotation
							End Site
							{
								OFFSET 0.000000 26.061493 0.000000
							}
						}
						JOINT HairMidB
						{
							OFFSET 0.464000 33.309204 -8.389700
							CHANNELS 3 Xrotation Yrotation Zrotation
							End Site
							{
								OFFSET 0.000000 26.061493 0.000000
							}
						}
						JOINT HairMidC
						{
							OFFSET 0.466600 27.991196 -17.375099
							CHANNELS 3 Xrotation Yrotation Zrotation
							End Site
							{
								OFFSET 0.000000 26.061493 0.000000
							}
						}
						JOINT HairMidD
						{
							OFFSET 0.467700 17.888092 -21.169500
							CHANNELS 3 Xrotation Yrotation Zrotation
							End Site
							{
								OFFSET 0.000000 26.061493 0.000000
							}
						}
						JOINT HairMidE
						{
							OFFSET 5.325700 3.514603 -14.369699
							CHANNELS 3 Xrotation Yrotation Zrotation
							End Site
							{
								OFFSET 0.000000 26.061493 0.000000
							}
						}
						JOINT HairMidF
						{
							OFFSET -4.394100 3.514603 -14.372400
							CHANNELS 3 Xrotation Yrotation Zrotation
							End Site
							{
								OFFSET 0.000000 26.061493 0.000000
							}
						}
						JOINT HairLeftA
						{
							OFFSET 15.319900 25.746506 2.623300
							CHANNELS 3 Xrotation Yrotation Zrotation
							End Site
							{
								OFFSET 0.000000 26.061493 0.000000
							}
						}
						JOINT HairLeftB
						{
							OFFSET 12.619500 29.289398 -8.731499
							CHANNELS 3 Xrotation Yrotation Zrotation
							End Site
							{
								OFFSET 0.000000 26.061493 0.000000
							}
						}
						JOINT HairLeftC
						{
							OFFSET 15.714800 15.959900 2.909800
							CHANNELS 3 Xrotation Yrotation Zrotation
							End Site
							{
								OFFSET 0.000000 26.061493 0.000000
							}
						}
						JOINT HairLeftD
						{
							OFFSET 16.101700 18.437408 -7.553200
							CHANNELS 3 Xrotation Yrotation Zrotation
							End Site
							{
								OFFSET 0.000000 26.061493 0.000000
							}
						}
						JOINT HairLeftE
						{
							OFFSET 9.731900 17.915009 -18.316799
							CHANNELS 3 Xrotation Yrotation Zrotation
							End Site
							{
								OFFSET 0.000000 26.061493 0.000000
							}
						}
						JOINT HairLeftF
						{
							OFFSET 11.204300 4.953598 -9.668100
							CHANNELS 3 Xrotation Yrotation Zrotation
							End Site
							{
								OFFSET 0.000000 26.061493 0.000000
							}
						}
						JOINT HairRightA
						{
							OFFSET -14.397900 25.746307 2.615100
							CHANNELS 3 Xrotation Yrotation Zrotation
							End Site
							{
								OFFSET 0.000000 26.061493 0.000000
							}
						}
						JOINT HairRightB
						{
							OFFSET -11.691200 29.289200 -8.738199
							CHANNELS 3 Xrotation Yrotation Zrotation
							End Site
							{
								OFFSET 0.000000 26.061493 0.000000
							}
						}
						JOINT HairRightC
						{
							OFFSET -14.792900 15.959702 2.901400
							CHANNELS 3 Xrotation Yrotation Zrotation
							End Site
							{
								OFFSET 0.000000 26.061493 0.000000
							}
						}
						JOINT HairRightD
						{
							OFFSET -15.174000 18.437195 -7.561900
							CHANNELS 3 Xrotation Yrotation Zrotation
							End Site
							{
								OFFSET 0.000000 26.061493 0.000000
							}
						}
						JOINT HairRightE
						{
							OFFSET -8.798200 17.914902 -18.322001
							CHANNELS 3 Xrotation Yrotation Zrotation
							End Site
							{
								OFFSET 0.000000 26.061493 0.000000
							}
						}
						JOINT HairRightF
						{
							OFFSET -10.275200 4.953506 -9.674099
							CHANNELS 3 Xrotation Yrotation Zrotation
							End Site
							{
								OFFSET 0.000000 26.061493 0.000000
							}
						}
					}
				}
				JOINT LeftShoulder
				{
					OFFSET 5.133500 7.341202 -1.867600
					CHANNELS 3 Xrotation Yrotation Zrotation
					JOINT LeftArm
					{
						OFFSET 8.072663 0.936867 -2.176600
						CHANNELS 3 Xrotation Yrotation Zrotation
						JOINT LeftForeArm
						{
							OFFSET 31.271999 0.000000 0.000000
							CHANNELS 3 Xrotation Yrotation Zrotation
							JOINT LeftHand
							{
								OFFSET 31.771030 0.000000 0.000000
								CHANNELS 3 Xrotation Yrotation Zrotation
								JOINT LeftHandThumb1
								{
									OFFSET 2.886520 -2.557846 4.416640
									CHANNELS 3 Xrotation Yrotation Zrotation
									JOINT LeftHandThumb2
									{
										OFFSET 2.371025 -1.368912 1.368911
										CHANNELS 3 Xrotation Yrotation Zrotation
										JOINT LeftHandThumb3
										{
											OFFSET 2.243378 -1.295212 1.295213
											CHANNELS 3 Xrotation Yrotation Zrotation
											End Site
											{
												OFFSET -0.332611 2.876945 0.020015
											}
										}
									}
								}
								JOINT LeftHandIndex1
								{
									OFFSET 8.568985 -0.641945 3.119977
									CHANNELS 3 Xrotation Yrotation Zrotation
									JOINT LeftHandIndex2
									{
										OFFSET 3.348503 0.000000 0.000000
										CHANNELS 3 Xrotation Yrotation Zrotation
										JOINT LeftHandIndex3
										{
											OFFSET 3.314552 0.000000 0.000000
											CHANNELS 3 Xrotation Yrotation Zrotation
											End Site
											{
												OFFSET -1.032898 3.075485 0.678796
											}
										}
									}
								}
								JOINT LeftHandMiddle1
								{
									OFFSET 8.124603 0.000000 0.000000
									CHANNELS 3 Xrotation Yrotation Zrotation
									JOINT LeftHandMiddle2
									{
										OFFSET 4.166275 0.000000 0.000000
										CHANNELS 3 Xrotation Yrotation Zrotation
										JOINT LeftHandMiddle3
										{
											OFFSET 3.018135 0.000000 0.000000
											CHANNELS 3 Xrotation Yrotation Zrotation
											End Site
											{
												OFFSET -1.032700 2.767982 0.617226
											}
										}
									}
								}
								JOINT LeftHandRing1
								{
									OFFSET 8.571686 -0.031357 -2.884048
									CHANNELS 3 Xrotation Yrotation Zrotation
									JOINT LeftHandRing2
									{
										OFFSET 3.671181 0.000000 0.000000
										CHANNELS 3 Xrotation Yrotation Zrotation
										JOINT LeftHandRing3
										{
											OFFSET 2.728851 0.000000 0.000000
											CHANNELS 3 Xrotation Yrotation Zrotation
											End Site
											{
												OFFSET -0.815796 2.539223 0.577389
											}
										}
									}
								}
								JOINT LeftHandPinky1
								{
									OFFSET 7.854515 -0.675232 -5.213020
									CHANNELS 3 Xrotation Yrotation Zrotation
									JOINT LeftHandPinky2
									{
										OFFSET 3.068596 0.000000 0.000000
										CHANNELS 3 Xrotation Yrotation Zrotation
										JOINT LeftHandPinky3
										{
											OFFSET 2.396042 0.000000 0.000000
											CHANNELS 3 Xrotation Yrotation Zrotation
											End Site
											{
												OFFSET -0.524597 2.267998 0.567429
											}
										}
									}
								}
							}
							JOINT LeftSleeve
							{
								OFFSET 19.684509 -0.200119 0.476146
								CHANNELS 3 Xrotation Yrotation Zrotation
								End Site
								{
									OFFSET -0.031017 25.731133 -0.002868
								}
							}
						}
					}
				}
				JOINT RightShoulder
				{
					OFFSET -4.395900 7.341202 -1.870200
					CHANNELS 3 Xrotation Yrotation Zrotation
					JOINT RightArm
					{
						OFFSET -8.071453 0.936867 -2.181100
						CHANNELS 3 Xrotation Yrotation Zrotation
						JOINT RightForeArm
						{
							OFFSET -31.272011 0.000000 0.000000
							CHANNELS 3 Xrotation Yrotation Zrotation
							JOINT RightHand
							{
								OFFSET -31.771019 0.000000 0.000000
								CHANNELS 3 Xrotation Yrotation Zrotation
								JOINT RightHandThumb1
								{
									OFFSET -2.886520 -2.557808 4.416626
									CHANNELS 3 Xrotation Yrotation Zrotation
									JOINT RightHandThumb2
									{
										OFFSET -2.371056 -1.368927 1.368928
										CHANNELS 3 Xrotation Yrotation Zrotation
										JOINT RightHandThumb3
										{
											OFFSET -2.243362 -1.295204 1.295206
											CHANNELS 3 Xrotation Yrotation Zrotation
											End Site
											{
												OFFSET 0.332642 2.876938 0.020047
											}
										}
									}
								}
								JOINT RightHandIndex1
								{
									OFFSET -8.568993 -0.641953 3.120017
									CHANNELS 3 Xrotation Yrotation Zrotation
									JOINT RightHandIndex2
									{
										OFFSET -3.348518 0.000000 0.000000
										CHANNELS 3 Xrotation Yrotation Zrotation
										JOINT RightHandIndex3
										{
											OFFSET -3.314552 0.000000 0.000000
											CHANNELS 3 Xrotation Yrotation Zrotation
											End Site
											{
												OFFSET 1.032898 3.075478 0.678804
											}
										}
									}
								}
								JOINT RightHandMiddle1
								{
									OFFSET -8.124588 0.000000 0.000000
									CHANNELS 3 Xrotation Yrotation Zrotation
									JOINT RightHandMiddle2
									{
										OFFSET -4.166275 0.000000 0.000000
										CHANNELS 3 Xrotation Yrotation Zrotation
										JOINT RightHandMiddle3
										{
											OFFSET -3.018097 0.000000 0.000000
											CHANNELS 3 Xrotation Yrotation Zrotation
											End Site
											{
												OFFSET 1.032700 2.767937 0.617197
											}
										}
									}
								}
								JOINT RightHandRing1
								{
									OFFSET -8.571747 -0.031349 -2.884061
									CHANNELS 3 Xrotation Yrotation Zrotation
									JOINT RightHandRing2
									{
										OFFSET -3.671204 0.000000 0.000000
										CHANNELS 3 Xrotation Yrotation Zrotation
										JOINT RightHandRing3
										{
											OFFSET -2.728874 0.000000 0.000000
											CHANNELS 3 Xrotation Yrotation Zrotation
											End Site
											{
												OFFSET 0.815804 2.539261 0.577413
											}
										}
									}
								}
								JOINT RightHandPinky1
								{
									OFFSET -7.854561 -0.675247 -5.212970
									CHANNELS 3 Xrotation Yrotation Zrotation
									JOINT RightHandPinky2
									{
										OFFSET -3.068550 0.000000 0.000000
										CHANNELS 3 Xrotation Yrotation Zrotation
										JOINT RightHandPinky3
										{
											OFFSET -2.395981 0.000000 0.000000
											CHANNELS 3 Xrotation Yrotation Zrotation
											End Site
											{
												OFFSET 0.524605 2.267952 0.567413
											}
										}
									}
								}
							}
							JOINT RightSleeve
							{
								OFFSET -19.684753 -0.200165 0.476065
								CHANNELS 3 Xrotation Yrotation Zrotation
								End Site
								{
									OFFSET 0.031342 25.731255 -0.002917
								}
							}
						}
					}
				}
				JOINT Hood
				{
					OFFSET 0.369700 14.447800 -5.317800
					CHANNELS 3 Xrotation Yrotation Zrotation
					JOINT Hood1
					{
						OFFSET 0.001700 -5.553802 -5.895100
						CHANNELS 3 Xrotation Yrotation Zrotation
						JOINT Hood2
						{
							OFFSET -0.000200 -8.380501 0.763600
							CHANNELS 3 Xrotation Yrotation Zrotation
							End Site
							{
								OFFSET 0.000000 8.415215 0.000000
							}
						}
					}
				}
				JOINT Left_Breast
				{
					OFFSET 5.682500 3.120102 3.188800
					CHANNELS 3 Xrotation Yrotation Zrotation
					End Site
					{
						OFFSET 0.000000 10.528564 0.000000
					}
				}
				JOINT Right_Breast
				{
					OFFSET -4.947600 3.120102 3.185900
					CHANNELS 3 Xrotation Yrotation Zrotation
					End Site
					{
						OFFSET 0.000000 10.528564 0.000000
					}
				}
				JOINT Whistle
				{
					OFFSET 0.368200 11.471298 0.095400
					CHANNELS 3 Xrotation Yrotation Zrotation
					JOINT Whistle1
					{
						OFFSET -0.002000 -6.349899 7.479800
						CHANNELS 3 Xrotation Yrotation Zrotation
						JOINT Whistle2
						{
							OFFSET -0.001300 -8.217598 4.717600
							CHANNELS 3 Xrotation Yrotation Zrotation
							End Site
							{
								OFFSET 0.000000 9.475479 0.000000
							}
						}
					}
				}
			}
		}
		JOINT Belly
		{
			OFFSET 0.212400 1.593002 3.163700
			CHANNELS 3 Xrotation Yrotation Zrotation
			End Site
			{
				OFFSET 0.000000 7.496635 0.000000
			}
		}
	}
	JOINT FitGrandmaFacialAnim_Joint
	{
		OFFSET 1.150000 -86.211197 -1.220100
		CHANNELS 3 Xrotation Yrotation Zrotation
		End Site
		{
			OFFSET 0.000000 31.666618 0.000000
		}
	}
}
MOTION
Frames: 4
Frame Time: 0.016667
-1.088797 73.586449 4.399270 0.919340 -43.353427 5.538211 0.000000 0.000002 -0.000000 -33.714790 12.513839 20.658898 62.350830 -10.918070 -0.964197 -30.283109 -9.946961 -9.114942 0.000000 -0.000003 0.000000 -0.000003 0.000001 0.000001 -0.000000 -0.000002 -0.000000 -21.583155 -9.938049 -31.999006 57.674992 -8.012249 -6.518554 -30.172484 -8.461287 25.832201 -0.000000 0.000001 0.000000 0.000001 0.000000 0.000003 -0.000000 0.000001 -0.000001 9.381034 12.991196 -4.759211 1.751730 3.638377 -1.540306 1.716100 3.636640 -1.514277 -4.807232 12.764783 2.112759 4.999609 12.340592 0.595643 0.000000 0.000000 0.000000 0.000000 0.000000 0.000000 0.000000 0.000000 0.000000 0.000000 0.000000 0.000000 0.000000 0.000000 0.000000 0.000000 0.000000 0.000000 0.000000 0.000000 0.000000 0.000000 0.000000 0.000000 0.000000 0.000000 0.000000 0.000000 0.000000 0.000000 0.000000 0.000000 0.000000 0.000000 0.000000 0.000000 0.000000 0.000000 0.000000 0.000000 0.000000 0.000000 0.000000 0.000000 0.000000 0.000000 0.000000 0.000000 0.000000 0.000000 0.000000 0.000000 0.000000 0.000000 0.000000 0.000000 0.000000 0.177123 3.280459 -2.501101 0.608044 -3.857612 -44.118876 0.000011 -132.706395 0.000027 -9.689306 -8.659005 15.986223 -6.141229 -11.690791 -6.761713 9.914094 42.595515 3.409883 0.000002 -0.000003 0.000002 0.255319 3.378207 -45.814361 5.654078 5.847732 -88.067469 -0.000001 0.000002 0.000001 -0.461472 3.841585 -39.722697 6.450727 5.820334 -95.892837 -0.000002 0.000003 0.000001 0.469728 4.966844 -39.799451 8.181078 5.368646 -113.503004 0.000000 0.000002 0.000001 -3.762434 9.063702 -45.253828 5.342501 5.828990 -85.005297 -0.000000 0.000001 -0.000000 0.000001 -0.000002 -0.000000 0.028597 13.490899 -3.638379 -50.086699 20.453912 65.076765 0.000272 105.790970 -0.000273 -20.892263 14.931898 -20.970349 -7.341073 13.749663 7.412313 9.855753 -44.489093 -3.903262 0.000000 0.000001 -0.000001 -0.124373 -2.384777 45.108885 4.500613 -4.654574 88.071184 0.000000 0.000002 -0.000000 -0.761620 -2.932894 39.031058 5.133883 -4.632746 95.881683 -0.000001 0.000001 0.000002 0.154766 -4.068822 39.122671 6.509729 -4.273607 113.462857 -0.000000 0.000001 0.000001 -4.198864 -8.025541 44.637776 4.252894 -4.639608 85.014818 0.000001 -0.000002 -0.000002 -0.000000 0.000001 0.000001 -0.000000 -0.000001 0.000000 -0.000000 -0.000001 0.000000 -0.000000 -0.000001 0.000000 -0.000000 -0.000001 0.000000 -0.000000 -0.000001 0.000000 -0.000000 -0.000001 0.000000 -0.000001 -0.000001 0.000001 -0.000001 -0.000001 0.000001 0.000001 0.000000 -0.000000 0.000000 0.000002 -0.000000 
-0.926329 73.687927 4.354378 1.525829 -47.330127 6.071609 -0.000000 -0.000003 -0.000000 -32.320803 13.490932 21.204012 61.970265 -10.973902 -1.704820 -31.164534 -7.243346 -8.865802 0.000000 -0.000001 0.000000 0.000001 -0.000002 0.000001 -0.000001 -0.000000 0.000001 -24.034961 -8.240623 -31.284025 57.698412 -5.859721 -8.203830 -29.421535 -8.103383 25.038490 -0.000000 0.000000 -0.000000 -0.000001 -0.000000 0.000002 0.000004 -0.000002 -0.000000 9.416995 13.306869 -4.811156 1.781057 3.670399 -1.552474 1.745708 3.669445 -1.526471 -4.852180 13.507687 1.989614 5.455247 14.636204 -0.622792 0.000001 -0.000000 -0.000000 0.000001 -0.000000 -0.000000 0.000001 -0.000000 -0.000000 0.000001 -0.000000 -0.000000 0.000001 -0.000000 -0.000000 0.000001 -0.000000 -0.000000 0.000001 -0.000000 -0.000000 0.000001 -0.000000 -0.000000 0.000001 -0.000000 -0.000000 0.000001 -0.000000 -0.000000 0.000001 -0.000000 -0.000000 0.000001 -0.000000 -0.000000 0.000001 -0.000000 -0.000000 0.000001 -0.000000 -0.000000 0.000001 -0.000000 -0.000000 0.000001 -0.000000 -0.000000 0.000001 -0.000000 -0.000000 0.000001 -0.000000 -0.000000 0.000001 -0.000000 -0.000000 0.097888 3.823966 -2.193747 0.257139 0.811132 -40.840249 0.000029 -133.311905 0.000031 -10.152858 -8.537438 13.607056 -6.141230 -11.690792 -6.761710 9.914098 42.595512 3.409878 0.000001 0.000002 0.000003 0.255311 3.378205 -45.814354 5.654082 5.847730 -88.067469 -0.000001 -0.000003 -0.000000 -0.461474 3.841589 -39.722693 6.450725 5.820336 -95.892837 0.000002 0.000000 -0.000001 0.469728 4.966840 -39.799447 8.181084 5.368646 -113.503004 -0.000001 0.000002 0.000001 -3.762434 9.063695 -45.253832 5.342502 5.828993 -85.005297 -0.000001 0.000000 -0.000003 0.000002 -0.000003 -0.000002 0.200219 11.353360 -3.117910 -51.036960 23.059969 69.349028 -0.000063 106.457733 0.000054 -20.423611 15.369070 -21.891154 -7.341075 13.749663 7.412312 9.855752 -44.489100 -3.903261 0.000001 0.000007 0.000001 -0.124375 -2.384776 45.108878 4.500611 -4.654570 88.071178 0.000000 -0.000001 0.000006 -0.761620 -2.932894 39.031055 5.133882 -4.632742 95.881683 -0.000002 0.000000 -0.000000 0.154766 -4.068825 39.122668 6.509730 -4.273602 113.462863 0.000001 0.000001 0.000001 -4.198867 -8.025541 44.637776 4.252897 -4.639608 85.014818 0.000001 0.000000 -0.000000 0.000002 0.000001 -0.000001 -0.000000 -0.000003 0.000000 -0.000000 -0.000003 0.000000 -0.000000 -0.000003 0.000000 -0.000000 -0.000003 0.000000 -0.000000 -0.000003 0.000000 -0.000000 -0.000003 0.000001 0.000000 -0.000004 0.000001 0.000000 -0.000004 0.000001 0.000000 0.000003 -0.000000 -0.000000 -0.000003 -0.000000 
-0.774489 73.763046 4.270157 2.377455 -51.326959 6.630015 -0.000000 0.000001 -0.000000 -31.053715 14.164812 21.734654 61.689763 -10.996862 -2.401936 -32.118452 -4.283618 -8.655736 -0.000000 0.000001 -0.000000 -0.000002 -0.000000 0.000001 0.000002 -0.000000 -0.000000 -26.655518 -6.951351 -30.037106 57.701144 -3.642612 -10.155168 -28.578386 -7.740431 24.245737 -0.000000 0.000001 -0.000001 0.000000 -0.000003 -0.000000 0.000000 0.000002 -0.000001 9.319873 13.299158 -4.823139 1.771370 3.585717 -1.596583 1.740269 3.584199 -1.570213 -4.939229 14.320790 1.963291 5.901587 17.485831 -1.956386 -0.000001 -0.000000 -0.000000 -0.000001 -0.000000 -0.000000 -0.000001 -0.000000 -0.000000 -0.000001 -0.000000 -0.000000 -0.000001 -0.000000 -0.000000 -0.000001 -0.000000 -0.000000 -0.000001 -0.000000 -0.000000 -0.000001 -0.000000 -0.000000 -0.000001 -0.000000 -0.000000 -0.000001 -0.000000 -0.000000 -0.000001 -0.000000 -0.000000 -0.000001 -0.000000 -0.000000 -0.000001 -0.000000 -0.000000 -0.000001 -0.000000 -0.000000 -0.000001 -0.000000 -0.000000 -0.000001 -0.000000 -0.000000 -0.000001 -0.000000 -0.000000 -0.000001 -0.000000 -0.000000 -0.000001 -0.000000 -0.000000 -0.027860 4.558143 -1.523011 -2.682215 4.894923 -37.047134 0.000010 -131.773583 0.000006 -12.029687 -7.006933 9.958192 -6.141232 -11.690793 -6.761709 9.914099 42.595508 3.409889 -0.000001 0.000001 0.000004 0.255319 3.378197 -45.814354 5.654074 5.847730 -88.067469 0.000001 0.000001 0.000003 -0.461477 3.841588 -39.722693 6.450729 5.820338 -95.892837 -0.000000 -0.000002 0.000000 0.469731 4.966839 -39.799451 8.181076 5.368646 -113.502998 0.000000 0.000001 0.000001 -3.762434 9.063697 -45.253835 5.342504 5.828993 -85.005297 0.000000 0.000002 0.000001 0.000001 -0.000001 0.000001 0.408008 9.523255 -2.592240 -52.008660 26.162961 72.996171 0.000155 106.923791 -0.000137 -20.167220 15.760634 -22.777308 -7.341075 13.749667 7.412313 9.855752 -44.489096 -3.903264 0.000001 0.000004 -0.000000 -0.124375 -2.384776 45.108881 4.500611 -4.654572 88.071178 0.000000 -0.000000 0.000007 -0.761622 -2.932896 39.031055 5.133884 -4.632744 95.881683 -0.000001 -0.000000 0.000000 0.154765 -4.068820 39.122671 6.509729 -4.273601 113.462857 -0.000000 0.000000 -0.000004 -4.198868 -8.025539 44.637776 4.252895 -4.639605 85.014811 -0.000001 0.000001 0.000001 0.000001 -0.000001 -0.000000 0.000001 0.000002 0.000000 0.000001 0.000002 0.000000 0.000001 0.000002 0.000000 0.000001 0.000002 0.000000 0.000001 0.000002 0.000000 0.000001 0.000002 0.000000 -0.000000 0.000000 0.000000 -0.000000 0.000000 0.000000 -0.000000 -0.000002 0.000000 -0.000000 0.000001 -0.000000 
-0.620057 73.801666 4.134919 3.227361 -54.965227 7.039414 -0.000000 0.000002 -0.000000 -29.951933 14.433824 22.162098 61.617841 -11.036387 -2.882899 -33.078415 -1.228762 -8.540950 -0.000000 0.000003 -0.000000 -0.000000 0.000002 -0.000001 0.000001 0.000002 0.000002 -28.931015 -5.535976 -29.359145 58.048685 -1.304111 -10.167946 -27.952216 -6.828721 22.760272 0.000000 0.000000 -0.000000 0.000002 -0.000002 -0.000000 -0.000001 0.000002 0.000000 9.202360 12.919181 -4.760108 1.764131 3.368142 -1.656705 1.742110 3.364815 -1.629985 -5.053196 15.121579 2.024824 6.249760 20.624678 -3.332858 -0.000000 0.000000 0.000000 -0.000000 0.000000 0.000000 -0.000000 0.000000 0.000000 -0.000000 0.000000 0.000000 -0.000000 0.000000 0.000000 -0.000000 0.000000 0.000000 -0.000000 0.000000 0.000000 -0.000000 0.000000 0.000000 -0.000000 0.000000 0.000000 -0.000000 0.000000 0.000000 -0.000000 0.000000 0.000000 -0.000000 0.000000 0.000000 -0.000000 0.000000 0.000000 -0.000000 0.000000 0.000000 -0.000000 0.000000 0.000000 -0.000000 0.000000 0.000000 -0.000000 0.000000 0.000000 -0.000000 0.000000 0.000000 -0.000000 0.000000 0.000000 -0.179992 5.325317 -0.579759 -7.789435 6.885917 -33.013152 0.000031 -127.270234 0.000038 -14.645193 -4.440904 5.722878 -6.141231 -11.690793 -6.761717 9.914099 42.595512 3.409880 -0.000002 -0.000001 -0.000001 0.255316 3.378204 -45.814361 5.654072 5.847729 -88.067462 -0.000001 0.000002 0.000001 -0.461474 3.841588 -39.722697 6.450721 5.820336 -95.892837 -0.000001 -0.000002 -0.000000 0.469727 4.966840 -39.799451 8.181078 5.368643 -113.503004 -0.000001 -0.000000 0.000002 -3.762433 9.063697 -45.253835 5.342508 5.828990 -85.005297 -0.000001 0.000004 0.000000 -0.000002 -0.000003 0.000001 0.645878 8.044687 -2.081284 -52.775673 29.458521 75.713890 0.000016 107.580711 0.000003 -20.173256 16.137937 -23.571461 -7.341073 13.749667 7.412312 9.855752 -44.489100 -3.903261 0.000001 0.000004 -0.000001 -0.124375 -2.384778 45.108885 4.500614 -4.654576 88.071178 0.000001 0.000001 0.000005 -0.761621 -2.932896 39.031055 5.133887 -4.632744 95.881676 -0.000000 0.000001 -0.000001 0.154764 -4.068823 39.122671 6.509728 -4.273605 113.462863 -0.000001 -0.000000 -0.000008 -4.198865 -8.025541 44.637776 4.252897 -4.639603 85.014818 -0.000002 0.000001 0.000001 0.000001 0.000001 -0.000001 0.000000 0.000000 0.000000 0.000000 0.000000 0.000000 0.000000 0.000000 0.000000 0.000000 0.000000 0.000000 0.000000 0.000000 0.000000 0.000000 0.000000 -0.000000 -0.000000 0.000000 -0.000000 -0.000000 0.000000 -0.000000 0.000000 0.000001 -0.000000 -0.000000 0.000002 -0.000000 
